<svg version="1.1" id="Layer_1" xmlns="http://www.w3.org/2000/svg" xmlns:xlink="http://www.w3.org/1999/xlink" x="0px" y="0px"
	 width="100%" viewBox="0 0 1024 1024" enable-background="new 0 0 1024 1024" xml:space="preserve">
<path fill="#012EFD" opacity="1.000000" stroke="none" 
	d="
M499.000000,1.000000 
	C674.265381,1.000000 849.530762,1.000000 1025.000000,1.000000 
	C1025.000000,189.025787 1025.000000,377.051666 1024.539795,565.441101 
	C998.074158,565.599182 972.068604,565.393677 945.864014,564.904419 
	C943.208496,562.148315 940.698792,559.726379 938.303589,557.195984 
	C911.699768,529.090942 885.077759,501.002960 858.540649,472.835083 
	C848.087402,461.739502 837.990540,450.305603 827.444702,439.300537 
	C817.462158,428.883423 806.993347,418.933746 796.937683,408.584900 
	C782.545105,393.772736 768.276794,378.838562 754.059387,363.857849 
	C736.233582,345.075012 718.553040,326.154419 700.730957,307.368011 
	C691.146118,297.264465 681.389832,287.323639 671.722778,277.297913 
	C658.512817,263.597900 645.332153,249.869629 632.105042,236.186127 
	C621.486633,225.201340 610.758057,214.322540 600.186401,203.293121 
	C586.526733,189.041885 573.000000,174.663239 559.368469,160.384842 
	C547.359436,147.805908 535.363525,135.212677 523.211487,122.772636 
	C515.324036,114.698219 507.166595,106.887474 499.080933,98.699005 
	C498.903168,98.118896 498.774597,97.798363 498.589294,97.048706 
	C498.530121,68.374863 498.510651,40.130116 498.546326,11.885441 
	C498.550903,8.256775 498.841766,4.628472 499.000000,1.000000 
z"/>
<path fill="#02F7A6" opacity="1.000000" stroke="none" 
	d="
M496.000000,1025.000000 
	C331.073944,1025.000000 166.147888,1025.000000 1.000000,1025.000000 
	C1.000000,871.976013 1.000000,718.951843 1.459607,565.365417 
	C26.944298,564.913391 51.969379,565.023682 77.098694,565.262268 
	C77.202927,565.390564 77.671402,565.454651 77.671402,565.454651 
	C77.671402,565.454651 78.051590,565.165405 77.940338,565.105591 
	C77.829094,565.045776 77.928719,564.813538 78.309982,564.947449 
	C79.480667,564.983215 80.270073,564.885071 81.117554,564.902344 
	C81.175613,565.017700 80.955421,565.152893 81.068436,565.274292 
	C81.181450,565.395691 81.655861,565.417175 81.655861,565.417175 
	C81.655861,565.417175 82.007355,565.090637 82.240440,564.987305 
	C82.635414,564.832092 82.797295,564.780212 83.235756,564.830994 
	C83.697723,564.867981 83.883125,564.802429 84.122871,564.841431 
	C84.177208,564.945984 83.978958,565.073425 84.226746,565.277771 
	C85.653275,565.340637 86.832016,565.199097 88.455559,564.967651 
	C91.919235,564.963135 94.938118,565.048462 98.132744,565.299561 
	C98.888649,565.372314 99.468803,565.279419 100.512909,565.145691 
	C128.625122,565.164673 156.273407,565.224426 184.194183,565.617371 
	C189.987457,565.653198 195.508194,565.355774 201.392487,564.998169 
	C202.487778,564.871338 203.219498,564.804688 204.225311,564.820435 
	C204.678833,564.837830 204.858276,564.772949 205.456924,564.769043 
	C207.567902,564.799622 209.259644,564.769226 211.225677,564.831543 
	C211.679596,564.853455 211.859207,564.782776 212.486481,564.768066 
	C215.940201,564.788391 218.946228,564.752869 222.220978,564.816040 
	C222.671783,564.857788 222.853882,564.800720 223.389755,564.817505 
	C224.463562,564.942749 225.183624,564.994202 225.972412,565.317871 
	C226.368149,565.674133 226.695175,565.758118 227.472717,565.899292 
	C231.346893,565.580078 234.770538,565.203735 238.484375,564.992798 
	C248.537796,576.156006 258.339355,587.119934 268.053436,598.160950 
	C277.687378,609.110901 287.211395,620.157471 296.823120,631.127014 
	C308.894348,644.903625 321.004852,658.645813 333.100220,672.401245 
	C341.239380,681.657471 349.328552,690.958435 357.537354,700.152466 
	C366.076263,709.716309 374.858490,719.065125 383.297333,728.715210 
	C390.227173,736.639709 396.612701,745.042603 403.597015,752.916443 
	C411.937225,762.318848 420.811920,771.246399 429.178955,780.625977 
	C442.567383,795.634705 455.611664,810.950745 469.026245,825.935669 
	C478.216431,836.201721 487.788391,846.126038 497.117432,856.625793 
	C497.342224,860.663269 497.895477,864.277893 497.896973,867.892822 
	C497.912506,905.207031 497.807159,942.521179 497.806976,979.835388 
	C497.806915,993.320862 497.999359,1006.806335 497.978271,1020.609802 
	C497.235046,1022.285217 496.617523,1023.642578 496.000000,1025.000000 
z"/>
<path fill="#FCE96B" opacity="1.000000" stroke="none" 
	d="
M497.189697,856.203125 
	C487.788391,846.126038 478.216431,836.201721 469.026245,825.935669 
	C455.611664,810.950745 442.567383,795.634705 429.178955,780.625977 
	C420.811920,771.246399 411.937225,762.318848 403.597015,752.916443 
	C396.612701,745.042603 390.227173,736.639709 383.297333,728.715210 
	C374.858490,719.065125 366.076263,709.716309 357.537354,700.152466 
	C349.328552,690.958435 341.239380,681.657471 333.100220,672.401245 
	C321.004852,658.645813 308.894348,644.903625 296.823120,631.127014 
	C287.211395,620.157471 277.687378,609.110901 268.053436,598.160950 
	C258.339355,587.119934 248.537796,576.156006 238.407227,564.649536 
	C237.805008,563.536499 237.720825,562.794617 237.313141,562.348083 
	C228.280487,552.455444 219.097687,542.697571 210.177780,532.704895 
	C197.360718,518.346375 184.868088,503.697235 171.988083,489.396301 
	C152.005493,467.209137 131.791367,445.230652 111.722610,423.120850 
	C105.381271,416.134491 99.191017,409.010956 92.845078,401.852631 
	C106.613708,387.191315 120.152420,372.638733 133.843887,358.231354 
	C149.731003,341.513519 165.768600,324.938812 181.710739,308.273132 
	C198.129837,291.108856 214.434387,273.834259 230.933884,256.747772 
	C246.449646,240.680084 262.166595,224.806824 277.772491,208.826004 
	C293.323761,192.901077 308.910004,177.009521 324.357208,160.984055 
	C332.626068,152.405655 340.509583,143.455246 348.797150,134.895584 
	C356.264923,127.182640 364.153259,119.877953 371.660797,112.202148 
	C379.764923,103.916344 387.554382,95.323227 395.636932,87.015739 
	C412.537659,69.644547 429.532959,52.365257 446.504761,35.063301 
	C457.655945,23.695225 468.833984,12.353512 480.000000,1.000003 
	C486.021149,1.000000 492.042297,1.000000 498.531738,1.000000 
	C498.841766,4.628472 498.550903,8.256775 498.546326,11.885441 
	C498.510651,40.130116 498.530121,68.374863 498.448517,97.451424 
	C498.356934,98.567444 498.349426,98.851624 498.301331,99.593552 
	C498.269653,116.356483 498.278564,132.661667 498.241455,149.232849 
	C498.224335,149.676483 498.253204,149.854126 498.248901,150.496887 
	C498.205688,255.612427 498.187347,360.262848 498.187714,464.913269 
	C498.188202,592.568176 498.210938,720.223145 498.171082,847.878052 
	C498.170227,850.653198 497.531067,853.428101 497.189697,856.203125 
z"/>
<path fill="#FA0519" opacity="1.000000" stroke="none" 
	d="
M479.531342,1.000003 
	C468.833984,12.353512 457.655945,23.695225 446.504761,35.063301 
	C429.532959,52.365257 412.537659,69.644547 395.636932,87.015739 
	C387.554382,95.323227 379.764923,103.916344 371.660797,112.202148 
	C364.153259,119.877953 356.264923,127.182640 348.797150,134.895584 
	C340.509583,143.455246 332.626068,152.405655 324.357208,160.984055 
	C308.910004,177.009521 293.323761,192.901077 277.772491,208.826004 
	C262.166595,224.806824 246.449646,240.680084 230.933884,256.747772 
	C214.434387,273.834259 198.129837,291.108856 181.710739,308.273132 
	C165.768600,324.938812 149.731003,341.513519 133.843887,358.231354 
	C120.152420,372.638733 106.613708,387.191315 92.845078,401.852631 
	C99.191017,409.010956 105.381271,416.134491 111.722610,423.120850 
	C131.791367,445.230652 152.005493,467.209137 171.988083,489.396301 
	C184.868088,503.697235 197.360718,518.346375 210.177780,532.704895 
	C219.097687,542.697571 228.280487,552.455444 237.313141,562.348083 
	C237.720825,562.794617 237.805008,563.536499 238.117035,564.484131 
	C234.770538,565.203735 231.346893,565.580078 227.317291,565.721924 
	C226.506592,565.222351 226.237381,565.075073 225.903671,565.045654 
	C225.183624,564.994202 224.463562,564.942749 223.291367,564.666016 
	C222.543579,564.532898 222.247925,564.625122 221.952271,564.717285 
	C218.946228,564.752869 215.940201,564.788391 212.384109,564.619385 
	C211.539841,564.522827 211.245621,564.630798 210.951416,564.738770 
	C209.259644,564.769226 207.567902,564.799622 205.354614,564.619324 
	C204.539124,564.518433 204.245178,564.628235 203.951233,564.738037 
	C203.219498,564.804688 202.487778,564.871338 201.079102,564.723267 
	C194.908661,564.767151 189.415161,565.025696 183.921677,565.284180 
	C156.273407,565.224426 128.625122,565.164673 100.173203,565.027588 
	C98.898697,565.011536 98.427849,565.072693 97.956993,565.133850 
	C94.938118,565.048462 91.919235,564.963135 88.058533,564.869995 
	C86.137459,564.932617 85.058205,565.003052 83.978958,565.073425 
	C83.978958,565.073425 84.177208,564.945984 84.021584,564.686157 
	C83.563698,564.527039 83.261429,564.627686 82.959175,564.728394 
	C82.797295,564.780212 82.635414,564.832092 81.971451,564.901978 
	C81.298065,564.997681 81.126740,565.075317 80.955421,565.152893 
	C80.955421,565.152893 81.175613,565.017700 80.897659,564.707764 
	C79.722717,564.536438 78.825722,564.674988 77.928719,564.813538 
	C77.928719,564.813538 77.829094,565.045776 77.678986,564.999756 
	C77.350746,565.013916 77.172600,565.073975 76.994461,565.134033 
	C51.969379,565.023682 26.944298,564.913391 1.459607,564.901550 
	C1.000000,377.078796 1.000000,189.157623 1.000000,1.000000 
	C160.354156,1.000000 319.708405,1.000000 479.531342,1.000003 
z"/>
<path fill="#D32CF2" opacity="1.000000" stroke="none" 
	d="
M496.468658,1025.000000 
	C496.617523,1023.642578 497.235046,1022.285217 498.304382,1020.484619 
	C503.797577,1015.228699 508.892212,1010.470337 513.871277,1005.593994 
	C537.844910,982.115173 561.965271,958.782593 585.693909,935.058350 
	C612.859863,907.897583 639.628845,880.340210 666.650940,853.034912 
	C677.649841,841.920654 688.980530,831.134033 699.943909,819.985535 
	C712.879517,806.831421 725.530212,793.397461 738.400085,780.177856 
	C748.362122,769.945068 758.534546,759.917114 768.500427,749.687927 
	C784.047607,733.730103 799.501831,717.681641 814.990051,701.666382 
	C826.302673,689.968872 837.631470,678.286865 848.907104,666.553772 
	C859.153564,655.891663 869.307495,645.140747 879.558289,634.482910 
	C889.816711,623.817078 900.185669,613.257568 910.431213,602.579529 
	C922.351013,590.156555 934.189392,577.655457 946.063110,565.188232 
	C972.068604,565.393677 998.074158,565.599182 1024.539795,565.902344 
	C1025.000000,713.354248 1025.000000,860.708435 1024.533081,1008.530701 
	C1019.043274,1009.048828 1014.020447,1009.098877 1008.533203,1009.090271 
	C1003.045715,1009.075745 998.022705,1009.119934 992.536621,1009.093750 
	C987.048462,1009.071045 982.023315,1009.118713 976.536011,1009.096985 
	C971.048767,1009.074402 966.023804,1009.121155 960.535767,1009.099060 
	C955.154053,1009.030151 950.235229,1009.030151 945.000000,1009.030151 
	C945.000000,1014.751404 945.000000,1019.875671 945.000000,1025.000000 
	C795.645752,1025.000000 646.291565,1025.000000 496.468658,1025.000000 
z"/>
<path fill="#3C46FF" opacity="1.000000" stroke="none" 
	d="
M1008.997559,1009.148987 
	C1014.020447,1009.098877 1019.043274,1009.048828 1024.533081,1008.999390 
	C1025.000000,1014.258423 1025.000000,1019.516846 1025.000000,1025.000000 
	C1019.982300,1025.000000 1014.962341,1025.000000 1009.471191,1024.533325 
	C1008.999207,1019.094116 1008.998352,1014.121521 1008.997559,1009.148987 
z"/>
<path fill="#FF6E3C" opacity="1.000000" stroke="none" 
	d="
M1008.533203,1009.090271 
	C1008.998352,1014.121521 1008.999207,1019.094116 1009.000000,1024.533325 
	C1003.977905,1025.000000 998.955811,1025.000000 993.466858,1024.533569 
	C992.999878,1019.099487 992.999756,1014.131775 992.999634,1009.164124 
	C998.022705,1009.119934 1003.045715,1009.075745 1008.533203,1009.090271 
z"/>
<path fill="#51DA4C" opacity="1.000000" stroke="none" 
	d="
M992.536621,1009.093750 
	C992.999756,1014.131775 992.999878,1019.099487 993.000000,1024.533569 
	C987.977905,1025.000000 982.955811,1025.000000 977.466858,1024.533691 
	C976.999390,1019.100281 976.998779,1014.133301 976.998169,1009.166321 
	C982.023315,1009.118713 987.048462,1009.071045 992.536621,1009.093750 
z"/>
<path fill="#42FFFF" opacity="1.000000" stroke="none" 
	d="
M976.536011,1009.096985 
	C976.998779,1014.133301 976.999390,1019.100281 977.000000,1024.533691 
	C971.977905,1025.000000 966.955811,1025.000000 961.466858,1024.533569 
	C960.999573,1019.100708 960.999146,1014.134338 960.998779,1009.167969 
	C966.023804,1009.121155 971.048767,1009.074402 976.536011,1009.096985 
z"/>
<path fill="#FFFF66" opacity="1.000000" stroke="none" 
	d="
M960.535767,1009.098999 
	C960.999146,1014.134338 960.999573,1019.100708 961.000000,1024.533569 
	C955.977905,1025.000000 950.955811,1025.000000 945.466858,1025.000000 
	C945.000000,1019.875671 945.000000,1014.751404 945.000000,1009.030151 
	C950.235229,1009.030151 955.154053,1009.030151 960.535767,1009.098999 
z"/>
<path fill="#949387" opacity="1.000000" stroke="none" 
	d="
M945.864075,564.904419 
	C934.189392,577.655457 922.351013,590.156555 910.431213,602.579529 
	C900.185669,613.257568 889.816711,623.817078 879.558289,634.482910 
	C869.307495,645.140747 859.153564,655.891663 848.907104,666.553772 
	C837.631470,678.286865 826.302673,689.968872 814.990051,701.666382 
	C799.501831,717.681641 784.047607,733.730103 768.500427,749.687927 
	C758.534546,759.917114 748.362122,769.945068 738.400085,780.177856 
	C725.530212,793.397461 712.879517,806.831421 699.943909,819.985535 
	C688.980530,831.134033 677.649841,841.920654 666.650940,853.034912 
	C639.628845,880.340210 612.859863,907.897583 585.693909,935.058350 
	C561.965271,958.782593 537.844910,982.115173 513.871277,1005.593994 
	C508.892212,1010.470337 503.797577,1015.228699 498.430084,1020.166626 
	C497.999359,1006.806335 497.806915,993.320862 497.806976,979.835388 
	C497.807159,942.521179 497.912506,905.207031 497.896973,867.892822 
	C497.895477,864.277893 497.342224,860.663269 497.117371,856.625793 
	C497.531067,853.428101 498.170227,850.653198 498.171082,847.878052 
	C498.210938,720.223145 498.188202,592.568176 498.187714,464.913269 
	C498.187347,360.262848 498.205688,255.612427 498.342957,150.378052 
	C498.587708,149.482788 498.526825,149.207047 498.287506,148.966843 
	C498.278564,132.661667 498.269653,116.356483 498.495728,99.540131 
	C498.730713,99.028969 499.130157,98.958557 499.130127,98.958565 
	C507.166595,106.887474 515.324036,114.698219 523.211487,122.772636 
	C535.363525,135.212677 547.359436,147.805908 559.368469,160.384842 
	C573.000000,174.663239 586.526733,189.041885 600.186401,203.293121 
	C610.758057,214.322540 621.486633,225.201340 632.105042,236.186127 
	C645.332153,249.869629 658.512817,263.597900 671.722778,277.297913 
	C681.389832,287.323639 691.146118,297.264465 700.730957,307.368011 
	C718.553040,326.154419 736.233582,345.075012 754.059387,363.857849 
	C768.276794,378.838562 782.545105,393.772736 796.937683,408.584900 
	C806.993347,418.933746 817.462158,428.883423 827.444702,439.300537 
	C837.990540,450.305603 848.087402,461.739502 858.540649,472.835083 
	C885.077759,501.002960 911.699768,529.090942 938.303589,557.195984 
	C940.698792,559.726379 943.208496,562.148315 945.864075,564.904419 
z"/>
<path fill="#B6AF7C" opacity="1.000000" stroke="none" 
	d="
M499.080933,98.698990 
	C499.130157,98.958557 498.730713,99.028969 498.536316,99.082382 
	C498.349426,98.851624 498.356934,98.567444 498.505219,97.880539 
	C498.774597,97.798363 498.903168,98.118896 499.080933,98.698990 
z"/>
<path fill="#C6302C" opacity="1.000000" stroke="none" 
	d="
M184.194183,565.617432 
	C189.415161,565.025696 194.908661,564.767151 200.715546,564.783447 
	C195.508194,565.355774 189.987457,565.653198 184.194183,565.617432 
z"/>
<path fill="#10E09A" opacity="1.000000" stroke="none" 
	d="
M84.226746,565.277771 
	C85.058205,565.003052 86.137459,564.932617 87.613731,564.959839 
	C86.832016,565.199097 85.653275,565.340637 84.226746,565.277771 
z"/>
<path fill="#C8382F" opacity="1.000000" stroke="none" 
	d="
M78.309982,564.947449 
	C78.825722,564.674988 79.722717,564.536438 80.839600,564.592407 
	C80.270073,564.885071 79.480667,564.983215 78.309982,564.947449 
z"/>
<path fill="#39BB7E" opacity="1.000000" stroke="none" 
	d="
M98.132744,565.299561 
	C98.427849,565.072693 98.898697,565.011536 99.709259,565.068481 
	C99.468803,565.279419 98.888649,565.372314 98.132744,565.299561 
z"/>
<path fill="#C6302C" opacity="1.000000" stroke="none" 
	d="
M222.220978,564.816040 
	C222.247925,564.625122 222.543579,564.532898 222.937607,564.592163 
	C222.853882,564.800720 222.671783,564.857788 222.220978,564.816040 
z"/>
<path fill="#10E09A" opacity="1.000000" stroke="none" 
	d="
M77.098694,565.262329 
	C77.172600,565.073975 77.350746,565.013916 77.790237,565.059570 
	C78.051590,565.165405 77.671402,565.454651 77.671402,565.454651 
	C77.671402,565.454651 77.202927,565.390564 77.098694,565.262329 
z"/>
<path fill="#10E09A" opacity="1.000000" stroke="none" 
	d="
M81.068436,565.274292 
	C81.126740,565.075317 81.298065,564.997681 81.738373,565.005371 
	C82.007355,565.090637 81.655861,565.417175 81.655861,565.417175 
	C81.655861,565.417175 81.181450,565.395691 81.068436,565.274292 
z"/>
<path fill="#C6302C" opacity="1.000000" stroke="none" 
	d="
M225.972412,565.317871 
	C226.237381,565.075073 226.506592,565.222351 226.866760,565.664795 
	C226.695175,565.758118 226.368149,565.674133 225.972412,565.317871 
z"/>
<path fill="#C6302C" opacity="1.000000" stroke="none" 
	d="
M211.225693,564.831482 
	C211.245621,564.630798 211.539841,564.522827 211.936432,564.563477 
	C211.859207,564.782776 211.679596,564.853455 211.225693,564.831482 
z"/>
<path fill="#C6302C" opacity="1.000000" stroke="none" 
	d="
M204.225311,564.820374 
	C204.245178,564.628235 204.539124,564.518433 204.935394,564.558350 
	C204.858276,564.772949 204.678833,564.837830 204.225311,564.820374 
z"/>
<path fill="#C8382F" opacity="1.000000" stroke="none" 
	d="
M83.235748,564.830933 
	C83.261429,564.627686 83.563698,564.527039 83.967247,564.581604 
	C83.883125,564.802429 83.697723,564.867981 83.235748,564.830933 
z"/>
<path fill="#B6AF7C" opacity="1.000000" stroke="none" 
	d="
M498.241455,149.232849 
	C498.526825,149.207047 498.587708,149.482788 498.376129,149.912933 
	C498.253204,149.854126 498.224335,149.676483 498.241455,149.232849 
z"/>
</svg>